<svg width="201" height="200" viewBox="0 0 201 200" fill="none" xmlns="http://www.w3.org/2000/svg">
<g clip-path="url(#clip0_1075_28253)">
<path d="M27.4145 132.43C50.0973 158.429 73.0009 161.72 105.195 167.882C137.39 174.043 161.029 169.785 178.448 154.083C198.561 135.932 197.766 94.3539 166.989 79.5492C157.375 74.9136 145.925 73.5106 137.503 66.9913C121.418 54.5511 108.408 35.1942 82.5861 31.5593C56.7638 27.9243 39.3544 45.2455 39.3544 45.2455C18.1482 68.4678 4.73176 106.411 27.4145 132.43Z" fill="#C4C4C4"/>
<path opacity="0.7" d="M27.4145 132.43C50.0973 158.429 73.0009 161.72 105.195 167.882C137.39 174.043 161.029 169.785 178.448 154.083C198.561 135.932 197.766 94.3539 166.989 79.5492C157.375 74.9136 145.925 73.5106 137.503 66.9913C121.418 54.5511 108.408 35.1942 82.5861 31.5593C56.7638 27.9243 39.3544 45.2455 39.3544 45.2455C18.1482 68.4678 4.73176 106.411 27.4145 132.43Z" fill="white"/>
<path d="M200.47 174.004H9.15723V181.852H200.47V174.004Z" fill="#C4C4C4"/>
<path opacity="0.5" d="M200.47 174.004H9.15723V181.852H200.47V174.004Z" fill="white"/>
<path d="M54.2726 89.586C53.3357 89.8902 52.4183 90.2483 51.5206 90.6505C52.0112 90.2924 52.5017 89.9196 52.9923 89.5419C55.1752 87.7857 57.2551 85.902 59.2173 83.9006C56.9166 86.1375 54.4541 88.2076 51.8591 90.0962C52.2172 89.4732 52.5312 88.8306 52.801 88.1635C53.2915 86.942 53.3798 85.7107 52.2172 85.0583C50.7799 84.2538 49.0434 85.4557 49.4996 87.511C49.7792 88.6589 50.3188 89.7234 51.0841 90.626C49.3917 91.7984 47.6208 92.858 45.7862 93.7998L45.6145 93.8881C46.002 93.2161 46.3454 92.5195 46.6397 91.8033C47.1008 90.5868 47.2186 89.3506 46.0511 88.7031C44.6138 87.8937 42.8773 89.1004 43.3384 91.1558C43.6131 92.2889 44.1429 93.3436 44.8885 94.2364C42.6859 95.3205 40.4098 96.2427 38.1435 97.2434L37.8148 97.3906C38.2563 96.9148 38.6684 96.4144 39.0461 95.8846C39.7819 94.8054 40.1793 93.6379 39.1982 92.7304C37.9914 91.612 36.0145 92.3772 35.9851 94.4964C35.9851 95.6639 36.2598 96.8216 36.7798 97.8664C34.6606 98.8573 32.6445 100.059 30.7657 101.457L30.7068 101.506C30.9619 101.104 31.1925 100.687 31.4034 100.26C31.9577 99.0781 32.1638 97.8615 31.0453 97.1208C30.2163 96.5518 29.0782 96.7578 28.5092 97.5917C28.4258 97.7095 28.362 97.837 28.3081 97.9695C28.1609 97.7389 27.9598 97.5476 27.7243 97.4102C26.601 96.7627 25.4972 97.4642 24.5505 98.4551C24.3052 98.7151 24.06 98.9947 23.849 99.2694C24.5799 97.2434 25.4972 95.2862 26.5912 93.4319C27.6311 93.8881 28.7545 94.1236 29.8925 94.1334C32.1294 94.1334 33.0713 92.2693 31.9724 91.1116C31.0796 90.1747 29.8239 90.5328 28.6367 91.2196C28.2443 91.4452 27.8666 91.6954 27.5036 91.9652C28.6416 90.2532 29.9318 88.6491 31.3593 87.1677C32.2962 87.9231 33.3803 88.4725 34.5478 88.7717C36.7209 89.3064 38.0846 87.7318 37.2998 86.3435C36.662 85.2153 35.3376 85.2594 34.0376 85.6372C33.4146 85.8236 32.8064 86.0492 32.2128 86.3141C32.8064 85.7353 33.4195 85.1809 34.0425 84.6315C34.8568 83.935 35.7006 83.2629 36.559 82.6056C37.4813 83.3414 38.5506 83.8761 39.6936 84.1704C41.8667 84.7051 43.2304 83.1305 42.4456 81.7422C41.8079 80.614 40.4834 80.6581 39.1785 81.0358C38.8744 81.1241 38.5654 81.2321 38.2661 81.3449C39.3993 80.5355 40.5472 79.7457 41.6999 78.9608L42.7644 78.2299C43.7259 79.0344 44.8492 79.6133 46.0609 79.9272C48.234 80.4619 49.6026 78.8873 48.8177 77.499C48.1751 76.3708 46.8556 76.4149 45.5507 76.7926C45.0356 76.9496 44.5304 77.1311 44.0349 77.3371L44.6923 76.8466C45.0945 76.5572 45.4968 76.2628 45.8892 75.9538C46.3797 75.5859 46.8458 75.1787 47.3216 74.7863C47.5963 74.5705 47.8563 74.3399 48.1163 74.1044C49.0777 74.9188 50.2109 75.5025 51.4324 75.8164C53.6055 76.3511 54.9692 74.7765 54.1843 73.3883C53.5466 72.26 52.2221 72.3041 50.9222 72.6819C50.1913 72.9075 49.48 73.1773 48.7834 73.4913C49.6713 72.6672 50.5297 71.8087 51.3441 70.9159C51.398 70.8521 51.4471 70.7884 51.5059 70.7295C51.8542 70.342 52.1976 69.9495 52.5312 69.5424C52.8647 69.1352 53.2964 68.6005 53.6594 68.11C55.1507 66.1527 56.377 64.009 57.3091 61.7329C56.3329 63.9845 55.0624 66.0939 53.5368 68.0119C52.0259 69.9397 50.3384 71.7204 48.4989 73.3343L48.2978 73.506C48.7147 72.7947 49.0875 72.054 49.4064 71.2936C49.8724 70.0771 49.9852 68.8409 48.8177 68.1934C47.3854 67.384 45.6439 68.5907 46.105 70.6461C46.3994 71.8627 46.9929 72.9909 47.8268 73.9229L47.3952 74.2958L46.9046 74.7176C46.6201 74.9482 46.3258 75.1689 46.0315 75.3897C45.8745 75.5074 45.7224 75.63 45.5409 75.7478C45.1239 76.0568 44.7021 76.3561 44.2753 76.6504L43.6621 77.0673L42.9655 77.5579C43.3727 76.8613 43.7308 76.1402 44.0349 75.3946C44.5009 74.1731 44.6138 72.9419 43.4512 72.2943C42.0139 71.4849 40.2725 72.6917 40.7336 74.7471C41.0181 75.9293 41.5822 77.0232 42.3769 77.9405L41.8863 78.2741L39.9781 79.525L39.6004 79.7702L38.5359 80.4815L38.0748 80.7906C37.5843 81.129 37.0937 81.4724 36.6032 81.8256C36.9956 81.1192 37.3439 80.3883 37.6333 79.6329C38.1239 78.4163 38.2122 77.1802 37.0496 76.5326C35.6123 75.7232 33.8758 76.93 34.3369 78.9854C34.6263 80.1823 35.2002 81.2909 36.0145 82.2132C35.1806 82.8263 34.3565 83.4542 33.5618 84.1116C32.9781 84.6021 32.4041 85.0927 31.84 85.6224C32.0853 85.1662 32.306 84.7002 32.4973 84.2195C32.9584 82.998 33.0762 81.7668 31.9087 81.1192C30.4714 80.3098 28.7348 81.5166 29.196 83.572C29.4707 84.7051 30.0004 85.7598 30.7461 86.6526C29.1567 88.2321 27.7243 89.9638 26.4734 91.818C26.6157 91.2833 26.7236 90.7388 26.7972 90.1894C26.9542 88.8944 26.7678 87.6778 25.4776 87.3246C23.8883 86.888 22.4951 88.4774 23.4419 90.3709C23.9864 91.4109 24.7663 92.3135 25.718 93.0051C24.4818 95.0213 23.4517 97.1601 22.6374 99.3822C22.6178 98.9162 22.5687 98.4551 22.5 97.994C22.2793 96.7038 21.7593 95.5903 20.4201 95.6148C18.7719 95.6492 17.884 97.577 19.3311 99.1173C20.1013 99.9218 21.0431 100.545 22.088 100.937C21.5287 102.654 21.0774 104.4 20.7292 106.171C20.6703 106.451 20.6261 106.731 20.5722 107.01C20.5133 107.064 20.4544 107.118 20.4005 107.177C20.3416 106.937 20.2729 106.686 20.1945 106.456C19.7824 105.22 19.0956 104.194 17.7761 104.43C16.1573 104.714 15.5735 106.745 17.2414 108.055C18.09 108.703 19.0662 109.159 20.1062 109.394C20.1062 109.443 20.1454 109.487 20.1699 109.536C19.9884 110.866 19.8511 112.205 19.7677 113.549C19.7039 114.53 19.6696 115.555 19.65 116.561C18.247 116.561 17.2561 118.101 18.2225 119.769C18.6296 120.461 19.1545 121.079 19.7677 121.594C19.8854 123.483 20.0718 125.371 20.322 127.245C19.9198 126.872 19.3458 126.74 18.8209 126.897C17.938 127.137 17.5406 127.849 17.3984 128.722C17.0844 129.045 16.9078 129.482 16.9078 129.933C16.2505 128.952 15.6275 127.971 15.0241 126.936C15.9463 126.23 16.7067 125.342 17.2659 124.322C18.3206 122.359 17.1286 120.638 15.5931 121.054C14.3374 121.398 14.0626 122.673 14.1215 124.042C14.1411 124.562 14.1902 125.077 14.2687 125.592L13.6212 124.454C13.0816 123.473 12.6401 122.492 12.1103 121.511C11.9827 121.27 11.8699 121.02 11.7669 120.775C12.8019 120.255 13.7144 119.524 14.4502 118.631C15.858 116.895 15.0094 114.986 13.42 115.109C12.125 115.212 11.6099 116.414 11.3941 117.768C11.3107 118.356 11.2567 118.955 11.2371 119.549L10.776 118.484C9.79491 116.071 8.98551 113.588 8.35761 111.057C9.52511 110.645 10.5896 109.973 11.4677 109.095C13.0423 107.501 12.3899 105.524 10.7956 105.485C9.50058 105.455 8.86778 106.598 8.51459 107.937C8.3429 108.649 8.21045 109.37 8.12706 110.096C7.78368 108.644 7.48935 107.172 7.24408 105.681C7.07729 104.768 6.96937 103.841 6.85655 102.919C8.11234 102.669 9.29946 102.139 10.3198 101.364C12.0858 99.9905 11.6982 97.9302 10.1187 97.6996C8.83835 97.4985 8.06329 98.5532 7.54331 99.8237C7.23917 100.623 6.98409 101.443 6.77806 102.276C6.67995 101.207 6.56712 100.133 6.51807 99.0585C6.37091 96.8412 6.37091 94.6141 6.51807 92.3969C6.29242 94.6141 6.21884 96.8412 6.28751 99.0683C6.28751 100.094 6.37581 101.114 6.43958 102.139C6.15997 101.443 5.83131 100.766 5.45849 100.113C4.79135 98.9898 3.89856 98.151 2.66239 98.6415C1.13679 99.2694 1.00435 101.379 2.91747 102.301C4.04082 102.816 5.27209 103.051 6.50335 102.983C6.59165 103.9 6.67014 104.813 6.80749 105.72C6.9988 107.192 7.24408 108.604 7.5335 110.032C7.21955 109.487 6.87126 108.958 6.48864 108.457C5.67924 107.432 4.68834 106.706 3.54537 107.368C2.11788 108.188 2.25524 110.312 4.27138 110.964C5.41434 111.317 6.62108 111.401 7.79839 111.199C8.35761 113.755 9.09343 116.272 10.0009 118.729L10.2904 119.465C10.0304 119.122 9.75076 118.793 9.45153 118.484C8.54402 117.542 7.48935 116.919 6.39543 117.699C5.05625 118.68 5.41435 120.741 7.47463 121.202C8.6127 121.432 9.7851 121.398 10.9084 121.104C11.0115 121.354 11.1145 121.594 11.2371 121.849C11.7277 122.86 12.1642 123.895 12.6793 124.886L13.1061 125.744C12.851 125.523 12.5861 125.312 12.3114 125.116C11.242 124.366 10.0843 123.954 9.16211 124.92C8.02404 126.112 8.75986 128.094 10.879 128.158C11.9827 128.182 13.0767 127.966 14.0872 127.52C14.6955 128.619 15.3184 129.703 15.9954 130.767C16.2456 131.174 16.4859 131.577 16.7705 131.979C16.3878 131.626 15.9807 131.297 15.5539 130.998C14.4845 130.247 13.3268 129.835 12.3997 130.802C11.2665 131.994 12.0024 133.975 14.1215 134.039C15.3332 134.054 16.5301 133.779 17.6142 133.24C17.9674 133.73 18.3304 134.221 18.7032 134.711C17.9134 135.629 18.1734 137.164 19.7775 137.865C20.5575 138.189 21.3865 138.376 22.2302 138.41C22.3283 138.488 22.4264 138.567 22.5344 138.641L22.5834 138.68C23.5988 142.467 24.8007 146.2 26.1889 149.874C26.7776 151.439 27.4104 152.989 28.0628 154.529H22.1763V177.742H40.1645V154.51H30.5891C29.7699 152.719 28.9801 150.909 28.2443 149.079C27.0425 146.077 25.9535 143.026 25.0067 139.931C25.1686 139.98 25.3305 140.014 25.4972 140.043C25.7131 140.088 25.9387 140.097 26.1595 140.073L25.9044 138.459H25.7327C25.6297 138.444 25.5267 138.425 25.4286 138.4C25.2029 138.336 24.9822 138.253 24.7663 138.155L24.5113 138.037C25.458 137.708 26.3361 137.208 27.1062 136.566C28.8084 135.094 28.3277 133.083 26.7383 132.911C25.4531 132.769 24.7271 133.858 24.2856 135.148C24.1532 135.516 24.0452 135.898 23.952 136.271C23.8588 135.928 23.7656 135.584 23.6773 135.241C23.4173 134.226 23.1868 133.2 22.9513 132.175C23.9766 131.856 24.9331 131.336 25.7621 130.65C27.4643 129.178 26.9787 127.172 25.3942 127C24.1041 126.858 23.383 127.947 22.9415 129.237C22.8091 129.61 22.6962 129.997 22.5981 130.38C22.451 129.634 22.3087 128.884 22.1763 128.133C22.0831 127.579 21.9948 127.02 21.9114 126.46C21.8819 125.666 21.8672 124.871 21.877 124.071C21.877 123.635 21.877 123.198 21.9163 122.762C22.8777 123.066 23.8883 123.193 24.8939 123.139C27.1308 122.992 27.9549 121.079 26.7874 119.995C25.8357 119.107 24.6045 119.549 23.4615 120.304C22.9513 120.652 22.4559 121.03 21.9899 121.437C22.1272 119.568 22.4117 117.719 22.8385 115.894C23.0887 114.82 23.4026 113.76 23.7754 112.725C24.8007 113.078 25.8848 113.23 26.9689 113.171C29.2058 113.029 30.0299 111.116 28.8624 110.027C27.9156 109.144 26.6795 109.581 25.5365 110.341C25.1392 110.616 24.7565 110.91 24.3886 111.229C24.8203 110.213 25.3207 109.232 25.8897 108.286C27.0179 106.377 28.4307 104.656 30.0789 103.179C30.9325 103.969 31.943 104.567 33.0467 104.94C35.1757 105.637 36.6522 104.165 35.99 102.723C35.4357 101.55 34.1308 101.496 32.7867 101.776C32.2668 101.889 31.7566 102.026 31.2562 102.198L31.2906 102.169C33.1203 100.741 35.0923 99.5049 37.1771 98.4796C37.9129 99.4411 38.845 100.236 39.9144 100.805C41.906 101.83 43.5984 100.613 43.1569 99.083C42.7988 97.837 41.5184 97.577 40.1498 97.6114C39.6102 97.6408 39.0755 97.6997 38.5457 97.788C40.7581 96.7431 43.0146 95.7571 45.1926 94.6043H45.2417C46.2179 95.4481 47.3755 96.0514 48.6215 96.3703C50.7946 96.9099 52.1584 95.3303 51.3735 93.9176C50.7358 92.7893 49.4113 92.8384 48.1114 93.2112C47.7435 93.3191 47.3755 93.4515 47.0174 93.5889C48.4744 92.7451 49.8822 91.8229 51.241 90.832L51.3539 90.9547V90.8909C52.3399 91.7395 53.5074 92.3527 54.7631 92.6814C56.9314 93.2161 58.3 91.6414 57.5151 90.2287C56.897 89.1642 55.5922 89.2083 54.2726 89.586ZM19.9737 134.034C19.5273 133.514 19.1054 132.97 18.6934 132.42C18.7915 132.332 18.8994 132.234 19.0073 132.126C19.6205 132.317 20.2533 132.43 20.8959 132.465V132.568L21.1952 132.504C21.3521 133.279 21.514 134.049 21.6857 134.819C21.2786 134.289 20.6409 133.995 19.9737 134.034ZM21.5729 115.565C21.4208 116.144 21.2933 116.723 21.1706 117.307L21.0971 117.204C21.0971 116.007 21.1167 114.815 21.151 113.623C21.1854 112.789 21.2442 111.96 21.3178 111.126C21.7201 111.538 22.1664 111.906 22.6423 112.23C22.2253 113.323 21.8721 114.437 21.5778 115.565H21.5729ZM23.5841 110.071C23.6136 109.855 23.6381 109.635 23.6479 109.419V109.09C23.8245 109.036 24.006 108.972 24.1826 108.899C23.9864 109.286 23.7803 109.679 23.589 110.071H23.5841ZM26.1399 105.926C25.9682 105.534 25.6444 105.23 25.2422 105.082C24.0305 104.592 23.0494 105.475 22.2695 106.603L22.2302 106.657H22.1517C22.0683 106.637 21.9849 106.628 21.9016 106.623C21.8966 106.554 21.9065 106.485 21.9359 106.422C22.2449 104.651 22.6668 102.899 23.1917 101.178C24.3199 101.32 25.4629 101.232 26.5519 100.918C27.224 100.741 27.8126 100.324 28.2001 99.7452C28.416 100.736 28.828 101.668 29.4118 102.497C28.2051 103.522 27.1111 104.675 26.1448 105.931H26.1399V105.926Z" fill="#C4C4C4"/>
<path opacity="0.3" d="M54.2726 89.586C53.3357 89.8902 52.4183 90.2483 51.5206 90.6505C52.0112 90.2924 52.5017 89.9196 52.9923 89.5419C55.1752 87.7857 57.2551 85.902 59.2173 83.9006C56.9166 86.1375 54.4541 88.2076 51.8591 90.0962C52.2172 89.4732 52.5312 88.8306 52.801 88.1635C53.2915 86.942 53.3798 85.7107 52.2172 85.0583C50.7799 84.2538 49.0434 85.4557 49.4996 87.511C49.7792 88.6589 50.3188 89.7234 51.0841 90.626C49.3917 91.7984 47.6208 92.858 45.7862 93.7998L45.6145 93.8881C46.002 93.2161 46.3454 92.5195 46.6397 91.8033C47.1008 90.5868 47.2186 89.3506 46.0511 88.7031C44.6138 87.8937 42.8773 89.1004 43.3384 91.1558C43.6131 92.2889 44.1429 93.3436 44.8885 94.2364C42.6859 95.3205 40.4098 96.2427 38.1435 97.2434L37.8148 97.3906C38.2563 96.9148 38.6684 96.4144 39.0461 95.8846C39.7819 94.8054 40.1793 93.6379 39.1982 92.7304C37.9914 91.612 36.0145 92.3772 35.9851 94.4964C35.9851 95.6639 36.2598 96.8216 36.7798 97.8664C34.6606 98.8573 32.6445 100.059 30.7657 101.457L30.7068 101.506C30.9619 101.104 31.1925 100.687 31.4034 100.26C31.9577 99.0781 32.1638 97.8615 31.0453 97.1208C30.2163 96.5518 29.0782 96.7578 28.5092 97.5917C28.4258 97.7095 28.362 97.837 28.3081 97.9695C28.1609 97.7389 27.9598 97.5476 27.7243 97.4102C26.601 96.7627 25.4972 97.4642 24.5505 98.4551C24.3052 98.7151 24.06 98.9947 23.849 99.2694C24.5799 97.2434 25.4972 95.2862 26.5912 93.4319C27.6311 93.8881 28.7545 94.1236 29.8925 94.1334C32.1294 94.1334 33.0713 92.2693 31.9724 91.1116C31.0796 90.1747 29.8239 90.5328 28.6367 91.2196C28.2443 91.4452 27.8666 91.6954 27.5036 91.9652C28.6416 90.2532 29.9318 88.6491 31.3593 87.1677C32.2962 87.9231 33.3803 88.4725 34.5478 88.7717C36.7209 89.3064 38.0846 87.7318 37.2998 86.3435C36.662 85.2153 35.3376 85.2594 34.0376 85.6372C33.4146 85.8236 32.8064 86.0492 32.2128 86.3141C32.8064 85.7353 33.4195 85.1809 34.0425 84.6315C34.8568 83.935 35.7006 83.2629 36.559 82.6056C37.4813 83.3414 38.5506 83.8761 39.6936 84.1704C41.8667 84.7051 43.2304 83.1305 42.4456 81.7422C41.8079 80.614 40.4834 80.6581 39.1785 81.0358C38.8744 81.1241 38.5654 81.2321 38.2661 81.3449C39.3993 80.5355 40.5472 79.7457 41.6999 78.9608L42.7644 78.2299C43.7259 79.0344 44.8492 79.6133 46.0609 79.9272C48.234 80.4619 49.6026 78.8873 48.8177 77.499C48.1751 76.3708 46.8556 76.4149 45.5507 76.7926C45.0356 76.9496 44.5304 77.1311 44.0349 77.3371L44.6923 76.8466C45.0945 76.5572 45.4968 76.2628 45.8892 75.9538C46.3797 75.5859 46.8458 75.1787 47.3216 74.7863C47.5963 74.5705 47.8563 74.3399 48.1163 74.1044C49.0777 74.9188 50.2109 75.5025 51.4324 75.8164C53.6055 76.3511 54.9692 74.7765 54.1843 73.3883C53.5466 72.26 52.2221 72.3041 50.9222 72.6819C50.1913 72.9075 49.48 73.1773 48.7834 73.4913C49.6713 72.6672 50.5297 71.8087 51.3441 70.9159C51.398 70.8521 51.4471 70.7884 51.5059 70.7295C51.8542 70.342 52.1976 69.9495 52.5312 69.5424C52.8647 69.1352 53.2964 68.6005 53.6594 68.11C55.1507 66.1527 56.377 64.009 57.3091 61.7329C56.3329 63.9845 55.0624 66.0939 53.5368 68.0119C52.0259 69.9397 50.3384 71.7204 48.4989 73.3343L48.2978 73.506C48.7147 72.7947 49.0875 72.054 49.4064 71.2936C49.8724 70.0771 49.9852 68.8409 48.8177 68.1934C47.3854 67.384 45.6439 68.5907 46.105 70.6461C46.3994 71.8627 46.9929 72.9909 47.8268 73.9229L47.3952 74.2958L46.9046 74.7176C46.6201 74.9482 46.3258 75.1689 46.0315 75.3897C45.8745 75.5074 45.7224 75.63 45.5409 75.7478C45.1239 76.0568 44.7021 76.3561 44.2753 76.6504L43.6621 77.0673L42.9655 77.5579C43.3727 76.8613 43.7308 76.1402 44.0349 75.3946C44.5009 74.1731 44.6138 72.9419 43.4512 72.2943C42.0139 71.4849 40.2725 72.6917 40.7336 74.7471C41.0181 75.9293 41.5822 77.0232 42.3769 77.9405L41.8863 78.2741L39.9781 79.525L39.6004 79.7702L38.5359 80.4815L38.0748 80.7906C37.5843 81.129 37.0937 81.4724 36.6032 81.8256C36.9956 81.1192 37.3439 80.3883 37.6333 79.6329C38.1239 78.4163 38.2122 77.1802 37.0496 76.5326C35.6123 75.7232 33.8758 76.93 34.3369 78.9854C34.6263 80.1823 35.2002 81.2909 36.0145 82.2132C35.1806 82.8263 34.3565 83.4542 33.5618 84.1116C32.9781 84.6021 32.4041 85.0927 31.84 85.6224C32.0853 85.1662 32.306 84.7002 32.4973 84.2195C32.9584 82.998 33.0762 81.7668 31.9087 81.1192C30.4714 80.3098 28.7348 81.5166 29.196 83.572C29.4707 84.7051 30.0004 85.7598 30.7461 86.6526C29.1567 88.2321 27.7243 89.9638 26.4734 91.818C26.6157 91.2833 26.7236 90.7388 26.7972 90.1894C26.9542 88.8944 26.7678 87.6778 25.4776 87.3246C23.8883 86.888 22.4951 88.4774 23.4419 90.3709C23.9864 91.4109 24.7663 92.3135 25.718 93.0051C24.4818 95.0213 23.4517 97.1601 22.6374 99.3822C22.6178 98.9162 22.5687 98.4551 22.5 97.994C22.2793 96.7038 21.7593 95.5903 20.4201 95.6148C18.7719 95.6492 17.884 97.577 19.3311 99.1173C20.1013 99.9218 21.0431 100.545 22.088 100.937C21.5287 102.654 21.0774 104.4 20.7292 106.171C20.6703 106.451 20.6261 106.731 20.5722 107.01C20.5133 107.064 20.4544 107.118 20.4005 107.177C20.3416 106.937 20.2729 106.686 20.1945 106.456C19.7824 105.22 19.0956 104.194 17.7761 104.43C16.1573 104.714 15.5735 106.745 17.2414 108.055C18.09 108.703 19.0662 109.159 20.1062 109.394C20.1062 109.443 20.1454 109.487 20.1699 109.536C19.9884 110.866 19.8511 112.205 19.7677 113.549C19.7039 114.53 19.6696 115.555 19.65 116.561C18.247 116.561 17.2561 118.101 18.2225 119.769C18.6296 120.461 19.1545 121.079 19.7677 121.594C19.8854 123.483 20.0718 125.371 20.322 127.245C19.9198 126.872 19.3458 126.74 18.8209 126.897C17.938 127.137 17.5406 127.849 17.3984 128.722C17.0844 129.045 16.9078 129.482 16.9078 129.933C16.2505 128.952 15.6275 127.971 15.0241 126.936C15.9463 126.23 16.7067 125.342 17.2659 124.322C18.3206 122.359 17.1286 120.638 15.5931 121.054C14.3374 121.398 14.0626 122.673 14.1215 124.042C14.1411 124.562 14.1902 125.077 14.2687 125.592L13.6212 124.454C13.0816 123.473 12.6401 122.492 12.1103 121.511C11.9827 121.27 11.8699 121.02 11.7669 120.775C12.8019 120.255 13.7144 119.524 14.4502 118.631C15.858 116.895 15.0094 114.986 13.42 115.109C12.125 115.212 11.6099 116.414 11.3941 117.768C11.3107 118.356 11.2567 118.955 11.2371 119.549L10.776 118.484C9.79491 116.071 8.98551 113.588 8.35761 111.057C9.52511 110.645 10.5896 109.973 11.4677 109.095C13.0423 107.501 12.3899 105.524 10.7956 105.485C9.50058 105.455 8.86778 106.598 8.51459 107.937C8.3429 108.649 8.21045 109.37 8.12706 110.096C7.78368 108.644 7.48935 107.172 7.24408 105.681C7.07729 104.768 6.96937 103.841 6.85655 102.919C8.11234 102.669 9.29946 102.139 10.3198 101.364C12.0858 99.9905 11.6982 97.9302 10.1187 97.6996C8.83835 97.4985 8.06329 98.5532 7.54331 99.8237C7.23917 100.623 6.98409 101.443 6.77806 102.276C6.67995 101.207 6.56712 100.133 6.51807 99.0585C6.37091 96.8412 6.37091 94.6141 6.51807 92.3969C6.29242 94.6141 6.21884 96.8412 6.28751 99.0683C6.28751 100.094 6.37581 101.114 6.43958 102.139C6.15997 101.443 5.83131 100.766 5.45849 100.113C4.79135 98.9898 3.89856 98.151 2.66239 98.6415C1.13679 99.2694 1.00435 101.379 2.91747 102.301C4.04082 102.816 5.27209 103.051 6.50335 102.983C6.59165 103.9 6.67014 104.813 6.80749 105.72C6.9988 107.192 7.24408 108.604 7.5335 110.032C7.21955 109.487 6.87126 108.958 6.48864 108.457C5.67924 107.432 4.68834 106.706 3.54537 107.368C2.11788 108.188 2.25524 110.312 4.27138 110.964C5.41434 111.317 6.62108 111.401 7.79839 111.199C8.35761 113.755 9.09343 116.272 10.0009 118.729L10.2904 119.465C10.0304 119.122 9.75076 118.793 9.45153 118.484C8.54402 117.542 7.48935 116.919 6.39543 117.699C5.05625 118.68 5.41435 120.741 7.47463 121.202C8.6127 121.432 9.7851 121.398 10.9084 121.104C11.0115 121.354 11.1145 121.594 11.2371 121.849C11.7277 122.86 12.1642 123.895 12.6793 124.886L13.1061 125.744C12.851 125.523 12.5861 125.312 12.3114 125.116C11.242 124.366 10.0843 123.954 9.16211 124.92C8.02404 126.112 8.75986 128.094 10.879 128.158C11.9827 128.182 13.0767 127.966 14.0872 127.52C14.6955 128.619 15.3184 129.703 15.9954 130.767C16.2456 131.174 16.4859 131.577 16.7705 131.979C16.3878 131.626 15.9807 131.297 15.5539 130.998C14.4845 130.247 13.3268 129.835 12.3997 130.802C11.2665 131.994 12.0024 133.975 14.1215 134.039C15.3332 134.054 16.5301 133.779 17.6142 133.24C17.9674 133.73 18.3304 134.221 18.7032 134.711C17.9134 135.629 18.1734 137.164 19.7775 137.865C20.5575 138.189 21.3865 138.376 22.2302 138.41C22.3283 138.488 22.4264 138.567 22.5344 138.641L22.5834 138.68C23.5988 142.467 24.8007 146.2 26.1889 149.874C26.7776 151.439 27.4104 152.989 28.0628 154.529H22.1763V177.742H40.1645V154.51H30.5891C29.7699 152.719 28.9801 150.909 28.2443 149.079C27.0425 146.077 25.9535 143.026 25.0067 139.931C25.1686 139.98 25.3305 140.014 25.4972 140.043C25.7131 140.088 25.9387 140.097 26.1595 140.073L25.9044 138.459H25.7327C25.6297 138.444 25.5267 138.425 25.4286 138.4C25.2029 138.336 24.9822 138.253 24.7663 138.155L24.5113 138.037C25.458 137.708 26.3361 137.208 27.1062 136.566C28.8084 135.094 28.3277 133.083 26.7383 132.911C25.4531 132.769 24.7271 133.858 24.2856 135.148C24.1532 135.516 24.0452 135.898 23.952 136.271C23.8588 135.928 23.7656 135.584 23.6773 135.241C23.4173 134.226 23.1868 133.2 22.9513 132.175C23.9766 131.856 24.9331 131.336 25.7621 130.65C27.4643 129.178 26.9787 127.172 25.3942 127C24.1041 126.858 23.383 127.947 22.9415 129.237C22.8091 129.61 22.6962 129.997 22.5981 130.38C22.451 129.634 22.3087 128.884 22.1763 128.133C22.0831 127.579 21.9948 127.02 21.9114 126.46C21.8819 125.666 21.8672 124.871 21.877 124.071C21.877 123.635 21.877 123.198 21.9163 122.762C22.8777 123.066 23.8883 123.193 24.8939 123.139C27.1308 122.992 27.9549 121.079 26.7874 119.995C25.8357 119.107 24.6045 119.549 23.4615 120.304C22.9513 120.652 22.4559 121.03 21.9899 121.437C22.1272 119.568 22.4117 117.719 22.8385 115.894C23.0887 114.82 23.4026 113.76 23.7754 112.725C24.8007 113.078 25.8848 113.23 26.9689 113.171C29.2058 113.029 30.0299 111.116 28.8624 110.027C27.9156 109.144 26.6795 109.581 25.5365 110.341C25.1392 110.616 24.7565 110.91 24.3886 111.229C24.8203 110.213 25.3207 109.232 25.8897 108.286C27.0179 106.377 28.4307 104.656 30.0789 103.179C30.9325 103.969 31.943 104.567 33.0467 104.94C35.1757 105.637 36.6522 104.165 35.99 102.723C35.4357 101.55 34.1308 101.496 32.7867 101.776C32.2668 101.889 31.7566 102.026 31.2562 102.198L31.2906 102.169C33.1203 100.741 35.0923 99.5049 37.1771 98.4796C37.9129 99.4411 38.845 100.236 39.9144 100.805C41.906 101.83 43.5984 100.613 43.1569 99.083C42.7988 97.837 41.5184 97.577 40.1498 97.6114C39.6102 97.6408 39.0755 97.6997 38.5457 97.788C40.7581 96.7431 43.0146 95.7571 45.1926 94.6043H45.2417C46.2179 95.4481 47.3755 96.0514 48.6215 96.3703C50.7946 96.9099 52.1584 95.3303 51.3735 93.9176C50.7358 92.7893 49.4113 92.8384 48.1114 93.2112C47.7435 93.3191 47.3755 93.4515 47.0174 93.5889C48.4744 92.7451 49.8822 91.8229 51.241 90.832L51.3539 90.9547V90.8909C52.3399 91.7395 53.5074 92.3527 54.7631 92.6814C56.9314 93.2161 58.3 91.6414 57.5151 90.2287C56.897 89.1642 55.5922 89.2083 54.2726 89.586ZM19.9737 134.034C19.5273 133.514 19.1054 132.97 18.6934 132.42C18.7915 132.332 18.8994 132.234 19.0073 132.126C19.6205 132.317 20.2533 132.43 20.8959 132.465V132.568L21.1952 132.504C21.3521 133.279 21.514 134.049 21.6857 134.819C21.2786 134.289 20.6409 133.995 19.9737 134.034ZM21.5729 115.565C21.4208 116.144 21.2933 116.723 21.1706 117.307L21.0971 117.204C21.0971 116.007 21.1167 114.815 21.151 113.623C21.1854 112.789 21.2442 111.96 21.3178 111.126C21.7201 111.538 22.1664 111.906 22.6423 112.23C22.2253 113.323 21.8721 114.437 21.5778 115.565H21.5729ZM23.5841 110.071C23.6136 109.855 23.6381 109.635 23.6479 109.419V109.09C23.8245 109.036 24.006 108.972 24.1826 108.899C23.9864 109.286 23.7803 109.679 23.589 110.071H23.5841ZM26.1399 105.926C25.9682 105.534 25.6444 105.23 25.2422 105.082C24.0305 104.592 23.0494 105.475 22.2695 106.603L22.2302 106.657H22.1517C22.0683 106.637 21.9849 106.628 21.9016 106.623C21.8966 106.554 21.9065 106.485 21.9359 106.422C22.2449 104.651 22.6668 102.899 23.1917 101.178C24.3199 101.32 25.4629 101.232 26.5519 100.918C27.224 100.741 27.8126 100.324 28.2001 99.7452C28.416 100.736 28.828 101.668 29.4118 102.497C28.2051 103.522 27.1111 104.675 26.1448 105.931H26.1399V105.926Z" fill="white"/>
<path d="M175.226 156.339C175.226 156.339 172.851 151.037 172.282 150.492C171.713 149.948 167.166 148.299 165.905 144.115C164.645 139.931 162.251 128.761 168.284 129.492C174.318 130.223 172.851 141.922 175.044 141.554C177.237 141.186 173.219 122.551 177.055 119.97C180.891 117.39 187.107 119.789 186.376 129.659C185.645 139.528 184.183 145.189 185.463 144.645C186.744 144.1 190.398 142.084 190.398 146.288C190.398 150.492 186.925 153.416 184.914 153.597C182.903 153.779 181.971 153.965 181.971 153.965V156.702L175.226 156.339Z" fill="#9F9F9F" stroke="#7A7A7A" stroke-width="0.490545" stroke-linecap="round" stroke-linejoin="round"/>
<path d="M173.293 146.062C171.914 144.758 170.649 143.492 170.065 142.329C168.907 140.009 168.034 133.5 168.034 133.5" stroke="white" stroke-width="0.245272" stroke-linecap="round" stroke-linejoin="round"/>
<path d="M165.979 136.678C166.892 140.48 167.019 143.345 169.776 146.68C171.248 148.486 175.143 150.016 175.579 151.61C175.972 153.528 176.261 155.466 176.458 157.414L178.636 157.561C178.636 157.561 179.077 153.784 177.831 151.09" stroke="white" stroke-width="0.245272" stroke-linecap="round" stroke-linejoin="round"/>
<path d="M166.587 130.581C166.587 130.581 164.959 131.832 165.538 134.912" stroke="white" stroke-width="0.245272" stroke-linecap="round" stroke-linejoin="round"/>
<path d="M177.022 141.8L176.158 143.198" stroke="white" stroke-width="0.245272" stroke-linecap="round" stroke-linejoin="round"/>
<path d="M177.321 141.314L177.021 141.8" stroke="white" stroke-width="0.245272" stroke-linecap="round" stroke-linejoin="round"/>
<path d="M180.219 120.426C180.219 120.426 176.884 120.284 176.884 123.473C176.884 126.166 177.708 135.359 177.531 139.563" stroke="white" stroke-width="0.245272" stroke-linecap="round" stroke-linejoin="round"/>
<path d="M182.834 146.548C182.756 147.642 182.707 148.417 182.707 148.711C182.707 150.306 186.763 144.213 188.652 144.071C188.652 144.071 190.536 143.924 189.81 147.406C189.27 150.041 187.318 152.16 184.737 152.915C183.138 153.352 181.833 152.626 181.544 153.352C181.313 154.205 181.166 155.079 181.107 155.962" stroke="white" stroke-width="0.245272" stroke-linecap="round" stroke-linejoin="round"/>
<path d="M183.781 123.453C184.031 124.503 184.154 125.587 184.134 126.666C184.134 130.061 183.486 138.066 183.055 143.472" stroke="white" stroke-width="0.245272" stroke-linecap="round" stroke-linejoin="round"/>
<path d="M182.104 120.721C182.54 120.971 182.893 121.344 183.119 121.79" stroke="white" stroke-width="0.245272" stroke-linecap="round" stroke-linejoin="round"/>
<path d="M179.744 145.665L179.641 147.696" stroke="white" stroke-width="0.245272" stroke-linecap="round" stroke-linejoin="round"/>
<path d="M180.509 122.457C180.509 122.457 179.641 122.747 179.93 125.793C180.171 128.309 179.93 139.734 179.817 143.634" stroke="white" stroke-width="0.245272" stroke-linecap="round" stroke-linejoin="round"/>
<path d="M189.648 144.939C188.402 147.269 186.41 149.109 183.992 150.163C180.068 151.758 179.93 151.032 179.93 152.616C179.93 154.2 179.783 157.114 179.783 157.114" stroke="white" stroke-width="0.245272" stroke-linecap="round" stroke-linejoin="round"/>
<path d="M184.208 177.727H171.532L168.819 159.366H186.92L184.208 177.727Z" fill="#C4C4C4" stroke="#7A7A7A" stroke-width="0.490545" stroke-linecap="round" stroke-linejoin="round"/>
<path d="M188.476 156.472H167.265V161.387H188.476V156.472Z" fill="#C4C4C4" stroke="#7A7A7A" stroke-width="0.490545" stroke-linecap="round" stroke-linejoin="round"/>
<path d="M114.61 165.365V155.397H85.2557V165.365C85.2557 168.613 84.152 171.762 82.1358 174.308L80.8506 175.927H119.015L117.73 174.308C115.714 171.762 114.615 168.613 114.61 165.365Z" fill="white" stroke="#7A7A7A" stroke-width="0.490545" stroke-linecap="round" stroke-linejoin="round"/>
<path d="M83.4502 172.346H116.415C115.233 170.212 114.61 167.808 114.61 165.365V155.397H85.2554V165.365C85.2554 167.808 84.6324 170.212 83.4502 172.346Z" fill="#C4C4C4"/>
<path d="M154.761 70.0522H45.0993C42.8019 70.0522 40.9395 71.9147 40.9395 74.2121V154.382C40.9395 156.679 42.8019 158.542 45.0993 158.542H154.761C157.058 158.542 158.92 156.679 158.92 154.382V74.2121C158.92 71.9147 157.058 70.0522 154.761 70.0522Z" fill="#9F9F9F" stroke="#7A7A7A" stroke-width="0.490545" stroke-linecap="round" stroke-linejoin="round"/>
<path d="M40.9395 144.787H158.925V154.377C158.925 156.673 157.061 158.537 154.765 158.537H45.1042C42.8084 158.537 40.9444 156.673 40.9444 154.377V144.787H40.9395Z" fill="white" stroke="#7A7A7A" stroke-width="0.490545" stroke-linecap="round" stroke-linejoin="round"/>
<path d="M152.99 75.561H46.875V138.076H152.99V75.561Z" fill="white" stroke="#7A7A7A" stroke-width="0.490545" stroke-linecap="round" stroke-linejoin="round"/>
<path d="M102.111 151.664C102.111 150.462 101.135 149.486 99.9331 149.486C98.7313 149.486 97.7551 150.462 97.7551 151.664C97.7551 152.866 98.7313 153.842 99.9331 153.842C101.135 153.842 102.111 152.866 102.111 151.664Z" fill="#9F9F9F" stroke="#7A7A7A" stroke-width="0.490545" stroke-linecap="round" stroke-linejoin="round"/>
<path d="M119.02 175.946H80.8506V177.727H119.02V175.946Z" fill="white" stroke="#7A7A7A" stroke-width="0.490545" stroke-linecap="round" stroke-linejoin="round"/>
<path d="M151.994 79.9663H47.709V85.4457H151.994V79.9663Z" fill="white" stroke="#7A7A7A" stroke-width="0.490545" stroke-linecap="round" stroke-linejoin="round"/>
<path d="M64.9173 85.4456L63.6664 82.0608H47.709V85.4456V89.934V135.412H151.994V85.4456H64.9173Z" fill="#C4C4C4" stroke="#7A7A7A" stroke-width="0.490545" stroke-linecap="round" stroke-linejoin="round"/>
<path d="M75.7783 110.223H124.676" stroke="#7A7A7A" stroke-width="0.981089" stroke-linecap="round" stroke-linejoin="round"/>
<path d="M75.7783 115.03H124.676" stroke="#7A7A7A" stroke-width="0.981089" stroke-linecap="round" stroke-linejoin="round"/>
<path d="M75.7783 119.838H124.676" stroke="#7A7A7A" stroke-width="0.981089" stroke-linecap="round" stroke-linejoin="round"/>
<path d="M75.7783 124.65H124.676" stroke="#7A7A7A" stroke-width="0.981089" stroke-linecap="round" stroke-linejoin="round"/>
<path d="M122.09 97.4051H77.7787C75.8607 97.4051 74.3057 95.855 74.3008 93.9369C74.3008 92.0189 75.8509 90.4639 77.7689 90.459H122.09C124.008 90.459 125.563 92.0091 125.568 93.9271V93.9369C125.568 95.855 124.008 97.41 122.09 97.4051Z" fill="white" stroke="#7A7A7A" stroke-width="0.490545" stroke-linecap="round" stroke-linejoin="round"/>
<path d="M122.09 97.4051H116.037V90.4492H122.09C124.008 90.4492 125.563 91.9993 125.568 93.9174V93.9272C125.568 95.8452 124.018 97.4002 122.1 97.4051C122.1 97.4051 122.095 97.4051 122.09 97.4051Z" fill="#9F9F9F" stroke="#7A7A7A" stroke-width="0.490545" stroke-linecap="round" stroke-linejoin="round"/>
<path d="M120.741 91.3322C119.937 90.5768 118.671 90.6209 117.92 91.4254C117.165 92.2299 117.209 93.4955 118.014 94.2461C118.818 95.0015 120.084 94.9574 120.834 94.1529C121.59 93.3533 121.55 92.0975 120.756 91.342C120.756 91.342 120.751 91.342 120.746 91.3371H120.741V91.3322ZM120.545 93.8782C119.941 94.5208 118.926 94.5502 118.283 93.9468C117.641 93.3435 117.611 92.328 118.215 91.6854C118.818 91.0428 119.824 91.0134 120.471 91.6118C121.119 92.2152 121.148 93.2306 120.545 93.8782Z" fill="white"/>
<path d="M122.241 94.8787C122.153 94.7904 122.021 94.7659 121.903 94.81L121.182 94.1331C121.103 94.0595 120.986 94.0595 120.907 94.1331L120.843 94.2017C120.77 94.2802 120.77 94.4029 120.843 94.4814L121.555 95.1485C121.51 95.2711 121.545 95.4085 121.638 95.5017L122.864 96.7035C123.031 96.8703 123.306 96.8703 123.473 96.7035C123.639 96.5367 123.639 96.262 123.473 96.0952L122.241 94.8787Z" fill="white"/>
<path d="M134.908 118.386C135.198 119.102 135.767 119.676 136.483 119.965C137.037 120.191 137.778 120.142 138.631 120.623C140.559 121.707 145.371 120.74 148.859 121.113C152.347 121.486 157.046 117.625 157.046 117.625L170.885 118.386V104.65C170.885 104.65 156.443 105.254 153.313 104.047C150.184 102.84 146.696 100.319 145.131 100.437C143.566 100.554 130.689 102.001 130.689 102.001L134.903 118.386H134.908Z" fill="white" stroke="#7A7A7A" stroke-width="0.490545" stroke-linecap="round" stroke-linejoin="round"/>
<path d="M131.327 63.0031C123.351 63.8861 117.597 71.0726 118.48 79.0488C119.363 87.0251 126.55 92.7792 134.526 91.8962C142.502 91.0132 148.256 83.8268 147.373 75.8505C146.495 67.8742 139.318 62.1251 131.347 63.0031C131.342 63.0031 131.332 63.0031 131.327 63.0031ZM134.212 89.0412C127.81 89.7525 122.046 85.1414 121.335 78.7398C120.624 72.3382 125.235 66.5743 131.636 65.863C138.038 65.1517 143.802 69.7628 144.513 76.1644C145.225 82.5661 140.613 88.33 134.212 89.0412Z" fill="white" stroke="#7A7A7A" stroke-width="0.490545" stroke-linecap="round" stroke-linejoin="round"/>
<path d="M131.25 62.174C123.274 63.057 117.52 70.2435 118.403 78.2197C119.286 86.196 126.472 91.9501 134.449 91.0671C142.425 90.1841 148.179 82.9977 147.296 75.0214C146.408 67.0451 139.227 61.296 131.25 62.174ZM134.135 88.2121C127.733 88.9234 121.969 84.3123 121.258 77.9107C120.547 71.5091 125.158 65.7452 131.559 65.0339C137.961 64.3226 143.725 68.9337 144.436 75.3353C145.147 81.737 140.536 87.5009 134.135 88.2121Z" fill="white" stroke="#7A7A7A" stroke-width="0.490545" stroke-linecap="round" stroke-linejoin="round"/>
<path d="M134.925 91.3379L134.237 91.4141C133.462 91.5 132.903 92.1983 132.989 92.9738L134.104 103.047C134.19 103.822 134.888 104.381 135.664 104.295L136.351 104.219C137.127 104.133 137.686 103.435 137.6 102.66L136.484 92.5866C136.398 91.8111 135.7 91.252 134.925 91.3379Z" fill="#C4C4C4" stroke="#7A7A7A" stroke-width="0.490545" stroke-linecap="round" stroke-linejoin="round"/>
<path d="M134.703 99.7448L136.175 99.5879C137.49 99.4456 138.677 100.392 138.834 101.707L141.036 121.628C141.223 123.325 140.001 124.851 138.304 125.037H138.206C136.514 125.224 134.988 124.007 134.797 122.315V122.305L132.594 102.389C132.447 101.064 133.399 99.8675 134.723 99.7203C134.723 99.7203 134.723 99.7203 134.728 99.7203L134.703 99.7448Z" fill="#9F9F9F" stroke="#7A7A7A" stroke-width="0.490545" stroke-linecap="round" stroke-linejoin="round"/>
<path d="M136.842 116.345C136.842 116.345 133.354 116.473 132.864 117.076C132.373 117.679 132.461 119.779 133.408 120.019C135.822 120.652 140.953 120.284 141.154 119.853C141.355 119.421 141.767 116.909 140.707 116.64C139.427 116.443 138.137 116.345 136.842 116.345Z" fill="white" stroke="#7A7A7A" stroke-width="0.490545" stroke-linecap="round" stroke-linejoin="round"/>
<path d="M135.836 111.479C135.836 111.479 131.779 111.327 131.146 112.058C130.514 112.789 130.391 115.521 131.46 115.933C134.188 116.978 140.325 116.571 140.604 116.031C140.884 115.492 141.492 112.691 140.29 112.239C139.088 111.788 135.836 111.479 135.836 111.479Z" fill="white" stroke="#7A7A7A" stroke-width="0.490545" stroke-linecap="round" stroke-linejoin="round"/>
<path d="M135.252 105.985C135.252 105.985 130.915 105.818 130.238 106.603C129.562 107.388 129.429 110.302 130.572 110.743C133.515 111.862 139.892 111.862 140.192 111.283C140.491 110.704 141.295 107.28 140.01 106.794C138.725 106.309 135.252 105.985 135.252 105.985Z" fill="white" stroke="#7A7A7A" stroke-width="0.490545" stroke-linecap="round" stroke-linejoin="round"/>
<path d="M132.751 100.844C132.751 100.844 128.414 100.682 127.737 101.462C127.06 102.242 126.898 105.249 128.071 105.602C129.243 105.955 137.391 106.72 137.69 106.147C137.99 105.573 138.794 102.139 137.509 101.653C136.224 101.168 132.751 100.844 132.751 100.844Z" fill="white" stroke="#7A7A7A" stroke-width="0.490545" stroke-linecap="round" stroke-linejoin="round"/>
<path d="M146.952 115.271C146.172 115.055 145.436 114.716 144.769 114.26C141.281 111.852 141.399 106.318 141.399 106.318L140.56 106.078C139.868 105.813 139.216 105.45 138.632 104.994C138.912 106.137 139.079 107.304 139.123 108.482C139.098 109.821 138.058 110.92 136.724 111.027C135.64 111.15 135.159 111.268 134.796 109.826C134.433 108.383 132.633 102.605 132.51 101.761C132.402 100.996 133.688 99.6321 135.733 99.3083C138.877 99.5634 141.978 100.442 145.147 100.442C146.25 100.545 147.305 100.932 148.213 101.57" fill="white"/>
<path d="M146.952 115.271C146.172 115.055 145.436 114.716 144.769 114.26C141.281 111.852 141.399 106.318 141.399 106.318L140.56 106.078C139.868 105.813 139.216 105.45 138.632 104.994C138.912 106.137 139.079 107.304 139.123 108.482C139.098 109.821 138.058 110.92 136.724 111.027C135.64 111.15 135.159 111.268 134.796 109.826C134.433 108.383 132.633 102.605 132.51 101.761C132.402 100.996 133.688 99.6321 135.733 99.3083C138.877 99.5634 141.978 100.442 145.147 100.442C146.25 100.545 147.305 100.932 148.213 101.57" stroke="#7A7A7A" stroke-width="0.490545" stroke-linecap="round" stroke-linejoin="round"/>
<path d="M150.268 115.575C149.885 115.595 149.503 115.595 149.12 115.575H150.268Z" fill="white"/>
<path d="M150.268 115.575C149.885 115.595 149.503 115.595 149.12 115.575" stroke="#7A7A7A" stroke-width="0.490545" stroke-linecap="round" stroke-linejoin="round"/>
<path d="M152.833 115.099C151.999 115.364 151.141 115.526 150.268 115.59L152.833 115.099Z" fill="white"/>
<path d="M152.833 115.099C151.999 115.364 151.141 115.526 150.268 115.59" stroke="#7A7A7A" stroke-width="0.490545" stroke-linecap="round" stroke-linejoin="round"/>
<path d="M157.165 113.539H161.497" stroke="#7A7A7A" stroke-width="0.490545" stroke-linecap="round" stroke-linejoin="round"/>
<path d="M157.528 114.741H159.334" stroke="#7A7A7A" stroke-width="0.490545" stroke-linecap="round" stroke-linejoin="round"/>
<path d="M141.398 106.318C141.398 106.318 143.792 106.318 145.362 104.891" stroke="#7A7A7A" stroke-width="0.490545" stroke-linecap="round" stroke-linejoin="round"/>
<path d="M138.578 104.837C138.509 104.185 138.372 103.537 138.171 102.914" stroke="#7A7A7A" stroke-width="0.490545" stroke-linecap="round" stroke-linejoin="round"/>
<path d="M134.762 109.193C134.762 109.193 134.305 107.927 134.86 107.471C135.414 107.015 136.886 106.358 137.141 106.863C137.396 107.368 137.95 109.698 137.798 110.155L137.646 110.611" stroke="#7A7A7A" stroke-width="0.245272" stroke-linecap="round" stroke-linejoin="round"/>
<path d="M201.255 124.542H159.779V104.155H201.255" fill="#C4C4C4"/>
<path d="M201.255 124.542H159.779V104.155H201.255" stroke="#7A7A7A" stroke-width="0.490545" stroke-linecap="round" stroke-linejoin="round"/>
<path d="M162.821 123.178C163.335 123.178 163.753 122.761 163.753 122.246C163.753 121.731 163.335 121.314 162.821 121.314C162.306 121.314 161.889 121.731 161.889 122.246C161.889 122.761 162.306 123.178 162.821 123.178Z" fill="white" stroke="#7A7A7A" stroke-width="0.490545" stroke-linecap="round" stroke-linejoin="round"/>
<path d="M96.9065 84.7392C97.6226 84.4498 98.1966 83.8808 98.486 83.1646C98.7117 82.6103 98.6577 81.8744 99.1433 81.016C100.223 79.0931 99.2611 74.2808 99.6339 70.7881C100.007 67.2955 96.1412 62.6058 96.1412 62.6058L96.8917 48.7676H83.1565C83.1565 48.7676 83.7549 63.2092 82.5531 66.334C81.3513 69.4588 78.825 72.9563 78.9427 74.5212C79.0604 76.086 80.5173 88.953 80.5173 88.953L96.8819 84.7392H96.9065Z" fill="white" stroke="#7A7A7A" stroke-width="0.490545" stroke-linecap="round" stroke-linejoin="round"/>
<path d="M41.5585 88.3105C42.4366 96.2916 49.6132 102.046 57.5944 101.168C65.5756 100.29 71.3297 93.1129 70.4516 85.1317C69.5735 77.1506 62.3968 71.3965 54.4157 72.2745H54.3813C46.4149 73.1722 40.6804 80.344 41.5585 88.3105ZM67.5574 85.4211C68.2687 91.8228 63.6575 97.5916 57.2559 98.3078C50.8543 99.0191 45.0855 94.4079 44.3693 88.0063C43.658 81.6047 48.2692 75.8359 54.6708 75.1197C61.0724 74.4084 66.8412 79.0195 67.5574 85.4211Z" fill="white" stroke="#7A7A7A" stroke-width="0.490545" stroke-linecap="round" stroke-linejoin="round"/>
<path d="M40.7096 88.3987C41.5975 96.3749 48.779 102.124 56.7553 101.236C64.7315 100.348 70.4807 93.1668 69.5928 85.1905C68.7099 77.2191 61.5283 71.47 53.5569 72.3529C45.5807 73.231 39.8266 80.4126 40.7096 88.3888V88.3987ZM66.7477 85.5192C67.459 91.9208 62.8479 97.6847 56.4462 98.396C50.0446 99.1072 44.2807 94.4961 43.5694 88.0945C42.8582 81.6929 47.4693 75.929 53.8709 75.2177C60.2725 74.5064 66.0364 79.1176 66.7477 85.5192Z" fill="white" stroke="#7A7A7A" stroke-width="0.490545" stroke-linecap="round" stroke-linejoin="round"/>
<path d="M81.196 82.0545L71.1229 83.1702C70.3474 83.2561 69.7884 83.9544 69.8743 84.7299L69.9504 85.4173C70.0363 86.1928 70.7346 86.7519 71.5101 86.666L81.5832 85.5504C82.3587 85.4645 82.9177 84.7662 82.8318 83.9907L82.7557 83.3032C82.6698 82.5277 81.9715 81.9686 81.196 82.0545Z" fill="#C4C4C4" stroke="#7A7A7A" stroke-width="0.490545" stroke-linecap="round" stroke-linejoin="round"/>
<path d="M78.2803 84.9499L78.1185 83.4783C77.9713 82.1489 78.9279 80.9569 80.2572 80.8097L100.173 78.6072C101.871 78.411 103.406 79.6275 103.607 81.3248C103.607 81.3297 103.607 81.3346 103.607 81.3395V81.4376C103.803 83.1349 102.587 84.6703 100.89 84.8714C100.885 84.8714 100.88 84.8714 100.875 84.8714L80.9587 87.074C79.6342 87.2212 78.4373 86.2744 78.2803 84.9499Z" fill="#9F9F9F" stroke="#7A7A7A" stroke-width="0.490545" stroke-linecap="round" stroke-linejoin="round"/>
<path d="M94.877 82.8115C94.877 82.8115 95.0094 86.2944 95.6079 86.7849C96.2063 87.2755 98.3157 87.1872 98.5511 86.2404C99.1888 83.8318 98.816 78.6958 98.3843 78.4996C97.9527 78.3034 95.4411 77.8815 95.1762 78.946C94.98 80.2263 94.877 81.5165 94.877 82.8115Z" fill="white" stroke="#7A7A7A" stroke-width="0.490545" stroke-linecap="round" stroke-linejoin="round"/>
<path d="M90.0151 83.8121C90.0151 83.8121 89.8582 87.8689 90.5891 88.5017C91.32 89.1345 94.0523 89.262 94.4644 88.1877C95.5142 85.4603 95.1021 79.3236 94.5625 79.0489C94.0229 78.7742 91.2219 78.161 90.7706 79.3628C90.3193 80.5647 90.0151 83.8121 90.0151 83.8121Z" fill="white" stroke="#7A7A7A" stroke-width="0.490545" stroke-linecap="round" stroke-linejoin="round"/>
<path d="M84.5208 84.4056C84.5208 84.4056 84.354 88.742 85.134 89.4189C85.914 90.0959 88.8376 90.2283 89.2791 89.0805C90.3976 86.1666 90.3975 79.7601 89.8187 79.4658C89.2399 79.1714 85.811 78.362 85.3302 79.6473C84.8495 80.9325 84.5208 84.4056 84.5208 84.4056Z" fill="white" stroke="#7A7A7A" stroke-width="0.490545" stroke-linecap="round" stroke-linejoin="round"/>
<path d="M79.3801 86.9025C79.3801 86.9025 79.2133 91.2389 79.9982 91.9159C80.783 92.5928 83.7852 92.7547 84.1384 91.5774C84.4916 90.4001 85.2568 82.2571 84.678 81.9578C84.0991 81.6586 80.6751 80.859 80.1895 82.1442C79.7038 83.4295 79.3801 86.9025 79.3801 86.9025Z" fill="white" stroke="#7A7A7A" stroke-width="0.490545" stroke-linecap="round" stroke-linejoin="round"/>
<path d="M94.1061 69.3704C94.3073 71.3031 93.8412 73.2457 92.7915 74.8792C90.3878 78.3719 84.8496 78.2492 84.8496 78.2492L84.6092 79.093C84.3492 79.7846 83.9813 80.4321 83.5251 81.0159C84.6681 80.7363 85.8405 80.5695 87.0178 80.5254C88.352 80.5646 89.4411 81.6046 89.5441 82.9339C89.6667 84.018 89.7844 84.4988 88.3422 84.8569C86.9 85.215 81.1214 87.0251 80.2777 87.1477C79.5124 87.2556 78.1487 85.9704 77.825 83.9248C78.0849 80.7804 78.963 77.6753 78.963 74.5113C79.066 73.4075 79.4536 72.348 80.0913 71.4405" fill="white"/>
<path d="M94.1061 69.3704C94.3073 71.3031 93.8412 73.2457 92.7915 74.8792C90.3878 78.3719 84.8496 78.2492 84.8496 78.2492L84.6092 79.093C84.3492 79.7846 83.9813 80.4321 83.5251 81.0159C84.6681 80.7363 85.8405 80.5695 87.0178 80.5254C88.352 80.5646 89.4411 81.6046 89.5441 82.9339C89.6667 84.018 89.7844 84.4988 88.3422 84.8569C86.9 85.215 81.1214 87.0251 80.2777 87.1477C79.5124 87.2556 78.1487 85.9704 77.825 83.9248C78.0849 80.7804 78.963 77.6753 78.963 74.5113C79.066 73.4075 79.4536 72.348 80.0913 71.4405" stroke="#7A7A7A" stroke-width="0.490545" stroke-linecap="round" stroke-linejoin="round"/>
<path d="M93.6357 66.8196C93.7829 67.2807 93.8908 67.7467 93.9693 68.2225L93.6357 66.8196Z" fill="white"/>
<path d="M93.6357 66.8196C93.7829 67.2807 93.8908 67.7467 93.9693 68.2225" stroke="#7A7A7A" stroke-width="0.490545" stroke-linecap="round" stroke-linejoin="round"/>
<path d="M92.0703 62.4834V58.1519" stroke="#7A7A7A" stroke-width="0.490545" stroke-linecap="round" stroke-linejoin="round"/>
<path d="M93.2722 62.125V60.3198" stroke="#7A7A7A" stroke-width="0.490545" stroke-linecap="round" stroke-linejoin="round"/>
<path d="M84.8496 78.2492C84.8496 78.2492 84.8496 75.8554 83.4221 74.2856" stroke="#7A7A7A" stroke-width="0.490545" stroke-linecap="round" stroke-linejoin="round"/>
<path d="M83.3722 81.075C82.7197 81.1436 82.0722 81.2761 81.4492 81.4772" stroke="#7A7A7A" stroke-width="0.490545" stroke-linecap="round" stroke-linejoin="round"/>
<path d="M87.7292 84.8718C87.7292 84.8718 86.4636 85.328 86.0074 84.7688C85.5512 84.2096 84.8939 82.7429 85.3991 82.4927C85.9044 82.2425 88.2345 81.6833 88.6907 81.8354L89.1469 81.9825" stroke="#7A7A7A" stroke-width="0.245272" stroke-linecap="round" stroke-linejoin="round"/>
<path d="M103.078 18.3931V59.8686H82.6865V18.3931" fill="#C4C4C4"/>
<path d="M103.078 18.3931V59.8686H82.6865V18.3931" stroke="#7A7A7A" stroke-width="0.490545" stroke-linecap="round" stroke-linejoin="round"/>
<path d="M100.777 57.7591C101.292 57.7591 101.709 57.3418 101.709 56.8271C101.709 56.3123 101.292 55.895 100.777 55.895C100.262 55.895 99.8447 56.3123 99.8447 56.8271C99.8447 57.3418 100.262 57.7591 100.777 57.7591Z" fill="white" stroke="#7A7A7A" stroke-width="0.490545" stroke-linecap="round" stroke-linejoin="round"/>
<path d="M76.3868 158.611C76.0973 159.332 75.5283 159.901 74.8121 160.19C74.2578 160.421 73.522 160.367 72.6635 160.847C70.7406 161.932 65.9283 160.97 62.4357 161.338C58.943 161.706 54.2534 157.85 54.2534 157.85L40.4004 158.611V144.875C40.4004 144.875 54.842 145.479 57.9717 144.277C61.1014 143.075 64.5892 140.544 66.154 140.666C67.7188 140.789 80.5956 142.231 80.5956 142.231L76.3868 158.611Z" fill="white" stroke="#7A7A7A" stroke-width="0.490545" stroke-linecap="round" stroke-linejoin="round"/>
<path d="M79.9447 103.257C87.921 104.14 93.6751 111.327 92.7921 119.303C91.9091 127.279 84.7226 133.033 76.7464 132.15C68.7701 131.267 63.016 124.081 63.899 116.105C64.782 108.128 71.9636 102.379 79.9398 103.262L79.9447 103.257ZM77.0603 129.29C83.4619 130.002 89.2308 125.391 89.9469 118.989C90.6582 112.587 86.0471 106.819 79.6455 106.102C73.2439 105.391 67.4751 110.002 66.7589 116.404C66.0476 122.805 70.6587 128.574 77.0603 129.29Z" fill="white" stroke="#7A7A7A" stroke-width="0.490545" stroke-linecap="round" stroke-linejoin="round"/>
<path d="M80.032 102.428C88.0082 103.316 93.7574 110.498 92.8695 118.474C91.9816 126.45 84.8001 132.2 76.8238 131.312C68.8524 130.424 63.1033 123.247 63.9862 115.271C64.8692 107.295 72.0508 101.545 80.0271 102.428C80.0271 102.428 80.0271 102.428 80.032 102.428ZM77.1476 128.466C83.5492 129.178 89.318 124.567 90.0342 118.165C90.7455 111.763 86.1343 105.995 79.7327 105.278C73.3311 104.567 67.5623 109.178 66.8461 115.58C66.1397 121.981 70.7509 127.745 77.1476 128.457V128.466Z" fill="white" stroke="#7A7A7A" stroke-width="0.490545" stroke-linecap="round" stroke-linejoin="round"/>
<path d="M74.7917 132.843L73.676 142.916C73.5901 143.692 74.1492 144.39 74.9247 144.476L75.6122 144.552C76.3877 144.638 77.086 144.079 77.1719 143.303L78.2875 133.23C78.3734 132.455 77.8143 131.756 77.0388 131.671L76.3514 131.594C75.5759 131.509 74.8776 132.068 74.7917 132.843Z" fill="#C4C4C4" stroke="#7A7A7A" stroke-width="0.490545" stroke-linecap="round" stroke-linejoin="round"/>
<path d="M73.0865 165.311H72.9884C71.2911 165.125 70.0647 163.599 70.2511 161.902C70.2511 161.892 70.2511 161.887 70.2511 161.878L72.4537 141.961C72.596 140.637 73.788 139.68 75.1124 139.823C75.1124 139.823 75.1174 139.823 75.1223 139.823L76.5939 139.984C77.9233 140.132 78.8798 141.324 78.7327 142.653L76.5301 162.594C76.3388 164.296 74.8034 165.517 73.1012 165.326C73.1012 165.326 73.1012 165.326 73.0963 165.326L73.0816 165.311H73.0865Z" fill="#9F9F9F" stroke="#7A7A7A" stroke-width="0.490545" stroke-linecap="round" stroke-linejoin="round"/>
<path d="M74.4258 156.594C74.4258 156.594 77.9086 156.727 78.3992 157.325C78.8897 157.924 78.8014 160.028 77.8547 160.268C75.4461 160.906 70.3101 160.533 70.1139 160.102C69.9176 159.67 69.4958 157.158 70.5603 156.889C71.8406 156.692 73.1307 156.594 74.4258 156.594Z" fill="white" stroke="#7A7A7A" stroke-width="0.490545" stroke-linecap="round" stroke-linejoin="round"/>
<path d="M75.4456 151.743C75.4456 151.743 79.5024 151.586 80.1352 152.317C80.768 153.048 80.8956 155.78 79.8213 156.192C77.0939 157.237 70.9571 156.83 70.6824 156.29C70.4077 155.75 69.7945 152.949 70.9964 152.498C72.1982 152.047 75.4456 151.743 75.4456 151.743Z" fill="white" stroke="#7A7A7A" stroke-width="0.490545" stroke-linecap="round" stroke-linejoin="round"/>
<path d="M76.0394 146.234C76.0394 146.234 80.3758 146.072 81.0527 146.852C81.7297 147.632 81.8621 150.556 80.7192 150.992C77.7759 152.116 71.3988 152.111 71.0996 151.537C70.8003 150.963 69.9958 147.529 71.2811 147.043C72.5663 146.558 76.0394 146.234 76.0394 146.234Z" fill="white" stroke="#7A7A7A" stroke-width="0.490545" stroke-linecap="round" stroke-linejoin="round"/>
<path d="M78.5365 141.098C78.5365 141.098 82.873 140.931 83.5499 141.711C84.2269 142.491 84.3887 145.503 83.2114 145.856C82.0341 146.209 73.8911 146.97 73.5919 146.396C73.2926 145.822 72.493 142.388 73.7783 141.907C75.0635 141.427 78.5365 141.098 78.5365 141.098Z" fill="white" stroke="#7A7A7A" stroke-width="0.490545" stroke-linecap="round" stroke-linejoin="round"/>
<path d="M61.6719 155.849C63.3839 155.917 65.0713 155.446 66.5037 154.509C69.9964 152.101 69.8738 146.568 69.8738 146.568L70.7175 146.327C71.4092 146.067 72.0567 145.699 72.6405 145.243C72.3608 146.386 72.1941 147.554 72.1499 148.731C72.1892 150.065 73.2291 151.159 74.5585 151.262C75.6426 151.38 76.1233 151.502 76.4863 150.055C76.8493 148.608 78.6496 142.835 78.7723 141.996C78.8949 141.157 77.595 139.862 75.5494 139.543C72.405 139.803 69.2998 140.681 66.1358 140.681C65.0321 140.784 63.9725 141.172 63.065 141.804" fill="white"/>
<path d="M61.6719 155.849C63.3839 155.917 65.0713 155.446 66.5037 154.509C69.9964 152.101 69.8738 146.568 69.8738 146.568L70.7175 146.327C71.4092 146.067 72.0567 145.699 72.6405 145.243C72.3608 146.386 72.1941 147.554 72.1499 148.731C72.1892 150.065 73.2291 151.159 74.5585 151.262C75.6426 151.38 76.1233 151.502 76.4863 150.055C76.8493 148.608 78.6496 142.835 78.7723 141.996C78.8949 141.157 77.595 139.862 75.5494 139.543C72.405 139.803 69.2998 140.681 66.1358 140.681C65.0321 140.784 63.9725 141.172 63.065 141.804" stroke="#7A7A7A" stroke-width="0.490545" stroke-linecap="round" stroke-linejoin="round"/>
<path d="M58.4531 155.353C59.1399 155.564 59.8414 155.706 60.5576 155.78L58.4531 155.353Z" fill="white"/>
<path d="M58.4531 155.353C59.1399 155.564 59.8414 155.706 60.5576 155.78" stroke="#7A7A7A" stroke-width="0.490545" stroke-linecap="round" stroke-linejoin="round"/>
<path d="M54.1157 153.788H49.7842" stroke="#7A7A7A" stroke-width="0.490545" stroke-linecap="round" stroke-linejoin="round"/>
<path d="M53.7583 154.99H51.9531" stroke="#7A7A7A" stroke-width="0.490545" stroke-linecap="round" stroke-linejoin="round"/>
<path d="M69.8833 146.567C69.8833 146.567 67.4894 146.567 65.9197 145.14" stroke="#7A7A7A" stroke-width="0.490545" stroke-linecap="round" stroke-linejoin="round"/>
<path d="M72.708 145.086C72.7767 144.434 72.9091 143.786 73.1103 143.163" stroke="#7A7A7A" stroke-width="0.490545" stroke-linecap="round" stroke-linejoin="round"/>
<path d="M76.5046 149.442C76.5046 149.442 76.9609 148.177 76.4016 147.72C75.8424 147.264 74.3757 146.607 74.1255 147.112C73.8753 147.617 73.3161 149.952 73.4682 150.404L73.6203 150.86" stroke="#7A7A7A" stroke-width="0.245272" stroke-linecap="round" stroke-linejoin="round"/>
<path d="M10.0264 164.796H51.5019V144.404H10.0264" fill="#C4C4C4"/>
<path d="M10.0264 164.796H51.5019V144.404H10.0264" stroke="#7A7A7A" stroke-width="0.490545" stroke-linecap="round" stroke-linejoin="round"/>
<path d="M47.5283 162.496C47.5283 163.011 47.9453 163.428 48.4604 163.428C48.9754 163.428 49.3924 163.011 49.3924 162.496C49.3924 161.98 48.9754 161.563 48.4604 161.563C47.9453 161.563 47.5283 161.98 47.5283 162.496Z" fill="white" stroke="#7A7A7A" stroke-width="0.490545" stroke-linecap="round" stroke-linejoin="round"/>
</g>
<defs>
<clipPath id="clip0_1075_28253">
<rect width="200" height="200" fill="white" transform="translate(0.5)"/>
</clipPath>
</defs>
</svg>
